<?xml version="1.0" encoding="utf-8"?>
<!-- Generator: Adobe Illustrator 19.2.1, SVG Export Plug-In . SVG Version: 6.00 Build 0)  -->
<svg version="1.1" id="Layer_1" xmlns="http://www.w3.org/2000/svg" xmlns:xlink="http://www.w3.org/1999/xlink" x="0px" y="0px"
	 viewBox="0 0 573.4 265.6" style="enable-background:new 0 0 573.4 265.6;" xml:space="preserve">
<style type="text/css">
	.st0{fill:#FFFFFF;}
</style>
<g>
	<g>
		<path class="st0" d="M49.9,241.8v10.4c0.6,0.4,1.2,0.8,1.8,1c0.6,0.2,1.3,0.3,2,0.3c1.9,0,3.4-0.6,4.4-1.7
			c1.1-1.2,1.6-2.7,1.6-4.8c0-2-0.5-3.6-1.6-4.7s-2.6-1.7-4.4-1.7c-0.7,0-1.4,0.1-2,0.3C51.1,241.1,50.5,241.4,49.9,241.8
			L49.9,241.8z M46.1,265.6v-27.8h3.7v1c0.7-0.5,1.4-0.9,2.2-1.1c0.8-0.2,1.6-0.3,2.6-0.3c2.7,0,4.8,0.9,6.5,2.7
			c1.7,1.8,2.5,4.1,2.5,6.9s-0.8,5.2-2.5,6.9c-1.7,1.8-3.9,2.7-6.5,2.7c-1,0-1.8-0.1-2.6-0.3c-0.8-0.2-1.5-0.6-2.2-1.1v10.3h-3.7
			V265.6z M93.6,256.3v-18.5h3.7v4c1-1.6,2-2.7,2.8-3.4c0.8-0.6,1.7-1,2.7-1c0.7,0,1.3,0.1,2,0.4c0.7,0.3,1.4,0.8,2.2,1.4l-2,3.3
			c-0.6-0.5-1.2-0.9-1.7-1.1s-1.1-0.3-1.7-0.3c-1,0-1.9,0.4-2.6,1.3c-0.7,0.8-1.3,2-1.6,3.5v10.4L93.6,256.3L93.6,256.3z M137.9,247
			c0,1.7,0.6,3.2,1.7,4.4c1.2,1.2,2.6,1.8,4.2,1.8c1.6,0,3-0.6,4.2-1.8c1.2-1.2,1.7-2.7,1.7-4.4c0-1.7-0.6-3.2-1.7-4.4
			c-1.2-1.2-2.6-1.8-4.2-1.8c-1.6,0-3,0.6-4.2,1.8C138.4,243.8,137.9,245.3,137.9,247L137.9,247z M134,247c0-2.7,1-4.9,2.9-6.8
			s4.2-2.8,7-2.8c1.3,0,2.5,0.2,3.7,0.7s2.2,1.2,3.2,2.1c0.9,1,1.7,2,2.2,3.2c0.5,1.1,0.7,2.4,0.7,3.6c0,1.3-0.3,2.5-0.8,3.7
			s-1.2,2.2-2.1,3.1c-0.9,0.9-2,1.6-3.1,2.1c-1.2,0.5-2.4,0.7-3.7,0.7c-2.7,0-5.1-0.9-7-2.8C135,252,134,249.7,134,247L134,247z
			 M188.1,256.3h-3.8V241h-2.4v-3.2h2.4v-1.7c0-1.6,0.1-2.8,0.2-3.5c0.1-0.7,0.4-1.3,0.7-1.9c0.5-0.9,1.3-1.5,2.2-2s2-0.7,3.1-0.7
			c0.4,0,0.8,0,1.2,0.1c0.5,0.1,1,0.2,1.7,0.3v3.2c-0.5-0.1-1-0.2-1.4-0.2c-0.4-0.1-0.7-0.1-1-0.1c-1.1,0-1.9,0.3-2.4,0.9
			c-0.5,0.6-0.7,1.7-0.7,3.3v2.2h2.5v3.2h-2.5v15.4L188.1,256.3L188.1,256.3z M236.8,254.3c-1.2,0.8-2.5,1.4-3.8,1.8s-2.6,0.6-4,0.6
			c-2.9,0-5.2-0.9-7-2.7c-1.7-1.8-2.6-4.2-2.6-7.2c0-2.8,0.8-5,2.5-6.7s3.9-2.6,6.5-2.6c2.7,0,4.8,0.9,6.3,2.6
			c1.6,1.7,2.3,4.1,2.3,7.1v0.5h-13.8c0.1,1.7,0.7,3.1,1.7,4.1s2.4,1.5,4.2,1.5c1.2,0,2.4-0.2,3.7-0.6s2.6-1.1,4-2L236.8,254.3
			L236.8,254.3z M223.3,245h9.8c-0.1-1.3-0.6-2.4-1.5-3.2c-0.9-0.8-1.9-1.2-3.2-1.2c-1.4,0-2.6,0.4-3.4,1.1
			C224.1,242.5,223.5,243.6,223.3,245L223.3,245z M265.6,255v-3.9c1.1,0.7,2.2,1.3,3.2,1.7c1,0.4,2,0.6,2.8,0.6
			c0.9,0,1.7-0.2,2.2-0.5s0.8-0.8,0.8-1.4c0-0.8-1-1.7-3-2.7c-0.6-0.3-1-0.5-1.4-0.7c-1.7-0.9-2.9-1.7-3.5-2.5s-1-1.8-1-3
			c0-1.5,0.6-2.8,1.7-3.7c1.1-0.9,2.6-1.4,4.6-1.4c1,0,2,0.1,3,0.4c1,0.2,1.9,0.6,2.8,1.1v3.6c-1.1-0.6-2.2-1.1-3.1-1.4
			s-1.8-0.5-2.7-0.5c-0.8,0-1.4,0.1-1.8,0.4s-0.6,0.6-0.6,1.2c0,0.9,1.3,2,3.9,3.3c0.1,0.1,0.3,0.1,0.3,0.2c2,1,3.3,1.9,3.9,2.7
			c0.6,0.8,0.9,1.7,0.9,2.9c0,1.6-0.6,2.9-1.8,3.9c-1.2,1-2.8,1.5-4.8,1.5c-1.2,0-2.3-0.1-3.3-0.4C267.7,256,266.7,255.6,265.6,255
			L265.6,255z M307.4,255v-3.9c1.1,0.7,2.2,1.3,3.2,1.7c1,0.4,2,0.6,2.8,0.6c0.9,0,1.7-0.2,2.2-0.5s0.8-0.8,0.8-1.4
			c0-0.8-1-1.7-3-2.7c-0.6-0.3-1-0.5-1.4-0.7c-1.7-0.9-2.9-1.7-3.5-2.5s-1-1.8-1-3c0-1.5,0.6-2.8,1.7-3.7c1.1-0.9,2.6-1.4,4.6-1.4
			c1,0,2,0.1,3,0.4c1,0.2,1.9,0.6,2.8,1.1v3.6c-1.1-0.6-2.2-1.1-3.1-1.4s-1.8-0.5-2.7-0.5c-0.8,0-1.4,0.1-1.8,0.4s-0.6,0.6-0.6,1.2
			c0,0.9,1.3,2,3.9,3.3c0.2,0.1,0.3,0.1,0.3,0.2c2,1,3.3,1.9,3.9,2.7c0.6,0.8,0.9,1.7,0.9,2.9c0,1.6-0.6,2.9-1.8,3.9
			c-1.2,1-2.8,1.5-4.8,1.5c-1.2,0-2.3-0.1-3.3-0.4C309.4,256,308.4,255.6,307.4,255L307.4,255z M350.1,232.3c0-0.6,0.2-1.1,0.6-1.5
			s0.9-0.6,1.5-0.6s1.1,0.2,1.5,0.6c0.4,0.4,0.6,0.9,0.6,1.5s-0.2,1.1-0.6,1.5s-0.9,0.6-1.5,0.6s-1.1-0.2-1.5-0.6
			S350.1,232.9,350.1,232.3L350.1,232.3z M350.4,256.3v-18.5h3.7v18.5H350.4L350.4,256.3z M387.9,247c0,1.7,0.6,3.2,1.7,4.4
			c1.2,1.2,2.6,1.8,4.2,1.8s3-0.6,4.2-1.8c1.2-1.2,1.7-2.7,1.7-4.4c0-1.7-0.6-3.2-1.7-4.4c-1.2-1.2-2.6-1.8-4.2-1.8s-3,0.6-4.2,1.8
			C388.5,243.8,387.9,245.3,387.9,247L387.9,247z M384,247c0-2.7,1-4.9,2.9-6.8s4.2-2.8,7-2.8c1.3,0,2.5,0.2,3.7,0.7
			s2.2,1.2,3.2,2.1c1,1,1.7,2,2.2,3.2c0.5,1.1,0.7,2.4,0.7,3.6c0,1.3-0.3,2.5-0.8,3.7s-1.2,2.2-2.1,3.1s-2,1.6-3.1,2.1
			c-1.2,0.5-2.4,0.7-3.7,0.7c-2.7,0-5.1-0.9-7-2.8C385,252,384,249.7,384,247L384,247z M433.4,256.3v-18.5h3.7v2.3
			c0.9-0.9,1.8-1.5,2.8-1.9c0.9-0.4,1.9-0.6,2.9-0.6c2,0,3.6,0.6,4.7,1.7c1.2,1.2,1.7,2.8,1.7,4.8v12.2h-3.7V245
			c0-1.5-0.3-2.6-0.9-3.3c-0.6-0.7-1.6-1.1-2.9-1.1c-0.9,0-1.8,0.2-2.5,0.6s-1.4,1-2.1,1.8v13.3H433.4L433.4,256.3z M489.3,252.5
			v-5.4c-2.5,0.8-4.2,1.5-5.1,2.1c-0.9,0.7-1.4,1.4-1.4,2.3c0,0.8,0.2,1.3,0.7,1.8c0.5,0.4,1.2,0.6,2,0.6c0.7,0,1.3-0.1,1.9-0.3
			C488.1,253.3,488.7,253,489.3,252.5L489.3,252.5z M489.4,254.7c-0.9,0.7-1.8,1.1-2.7,1.4c-0.8,0.3-1.7,0.4-2.7,0.4
			c-1.7,0-2.9-0.4-3.9-1.2c-0.9-0.8-1.4-1.9-1.4-3.3c0-1.3,0.5-2.5,1.5-3.4c1-1,2.5-1.8,4.6-2.5l4.4-1.5c0-0.1,0-0.2,0-0.3
			c0-0.1,0-0.3,0-0.5c0-1.1-0.3-1.9-0.8-2.4s-1.4-0.7-2.7-0.7c-1,0-2.1,0.2-3.2,0.6s-2.2,1.1-3.3,1.9v-3.6c0.9-0.8,2-1.4,3.2-1.8
			c1.2-0.4,2.4-0.6,3.7-0.6c2.4,0,4.1,0.5,5.2,1.6c1.1,1,1.6,2.7,1.6,5.1v7.8c0,0.7,0.1,1.1,0.2,1.4c0.1,0.3,0.3,0.4,0.6,0.4
			c0.2,0,0.5-0.1,0.7-0.2s0.6-0.4,1.2-0.8v2.2c-0.7,0.6-1.3,1-2,1.3s-1.4,0.4-2.1,0.4s-1.2-0.1-1.6-0.4
			C489.7,255.8,489.5,255.4,489.4,254.7L489.4,254.7z M524.4,256.3v-28h3.7v28H524.4L524.4,256.3z"/>
	</g>
	<g>
		<path class="st0" d="M459.6,136.9c2.3,33.1,32.8,55,60.3,47.3c10.1-2.8,22.8-12.3,27.9-26.4c5.7-15.6,2.8-35-15.7-48.5
			c-10.9-7.9-25.3-10.1-30.7-0.2c-4.7,8.7,2.8,17.1,12.8,20.5c19.2,6.5,13,23.7,5.4,28.2c-12.8,7.5-46.8-8.9-39.1-40.4
			c7.1-29,41.3-32.4,61.8-15.2c33.7,28.5,19.1,81-15,91.2c-70.1,21-83.2-65.2-94-131.3c35.9-0.7,62.4-4.4,75.5-6.9
			c9-1.7,20.9-4.4,21.3-10h-93.4c-5.9,0.1-8.1-3.8-9.2-7.1c-11-30.7-29.2-48.6-69.7-31.3c-14.2,6.1-3.5,27.8,1.9,21.3
			c22.8-34.2,30.3-17.7,35.7,9.1c1.8,8.9,11.9,7,15.1,7.9c-7.3,0.2-27.5,0.1-34.8,0.1c-18.1,0.2-24.8,10.1-15.1,9.4
			c21.3-0.8,42.4,9.2,44.8,19.5c13.5,57.4,25.3,131.8,99.1,134.6c65,2.5,88.2-71.3,51.3-109.8C518.3,60.2,455.8,83.2,459.6,136.9
			L459.6,136.9z"/>
	</g>
	<g>
		<path class="st0" d="M564,89.3v-7.4h3.1c0.8,0,1.4,0.1,1.7,0.2c0.4,0.1,0.6,0.4,0.9,0.7c0.2,0.3,0.3,0.7,0.3,1.2
			c0,0.6-0.2,1-0.5,1.4s-0.8,0.6-1.5,0.7c0.3,0.2,0.6,0.4,0.8,0.6s0.5,0.6,0.8,1.2l0.9,1.4h-1.8l-1.1-1.6c-0.4-0.6-0.6-0.9-0.8-1.1
			c-0.1-0.1-0.3-0.3-0.4-0.3c-0.2-0.1-0.4-0.1-0.7-0.1h-0.3v3.1L564,89.3L564,89.3z M565.5,85.1h1.1c0.7,0,1.2,0,1.3-0.1
			c0.2-0.1,0.3-0.2,0.4-0.3c0.1-0.1,0.2-0.3,0.2-0.6c0-0.2-0.1-0.4-0.2-0.6c-0.1-0.2-0.3-0.2-0.6-0.3c-0.1,0-0.5,0-1.1,0h-1.2
			L565.5,85.1L565.5,85.1z"/>
	</g>
	<g>
		<path class="st0" d="M566.7,92.3c-3.7,0-6.7-3-6.7-6.7s3-6.7,6.7-6.7s6.7,3,6.7,6.7S570.4,92.3,566.7,92.3z M566.7,79.5
			c-3.4,0-6.1,2.7-6.1,6.1s2.7,6.1,6.1,6.1c3.4,0,6.1-2.7,6.1-6.1C572.8,82.3,570.1,79.5,566.7,79.5z"/>
	</g>
	<g>
		<path class="st0" d="M113.8,136.9c-2.3,33.1-32.8,55-60.3,47.3c-10.1-2.8-22.8-12.3-27.9-26.4c-5.7-15.6-2.8-35,15.7-48.5
			c10.9-7.9,25.3-10.1,30.7-0.2c4.7,8.7-2.8,17.1-12.8,20.5c-19.2,6.5-13,23.7-5.4,28.2c12.8,7.5,46.8-8.9,39.1-40.4
			c-7.1-29-41.3-32.4-61.8-15.2c-33.7,28.5-19.1,81,15,91.2c70.1,21,82.8-65.3,94-131.3c7.2-42.5,25.1-76.8,75.6-55.2
			c14.2,6.1,3.5,27.8-1.9,21.3C156.1-58.3,193.7,204,68.9,208.9c-65,2.6-88.2-71.2-51.3-109.7C55,60.2,117.5,83.2,113.8,136.9
			L113.8,136.9z"/>
	</g>
	<g>
		<path class="st0" d="M404,188.5c3.6,0,6.8,1.9,8.6,4.7c6.9-6.3,3.2-14.9-2.6-15.4c-8.6-0.8-23.4,10-30.5,14.6
			c-0.2,0.1-0.3,0.3-0.5,0.4c-39.5,31.2-70.7,2.8-49.9-34.8c0.8-1.5,3.8-6.4,5.6-9.4h-0.1c10.4-13.3,30.4-40.1,50-44.6
			c24.8-3.9,25.4,44.5-34.7,47.2H349c-4.5,6.4-7.7,12.2-10,17.4c-7.5,21.2,10.8,24.1,27.8,11.8c24.2-17.5,47.2-21.5,57.1-9.6
			c14.4,17.4-1.8,37.4-18.8,38.4c-1.4,0.1-2.6-0.1-3.5-0.4c-4.5-1.1-7.9-5.2-7.9-10C393.7,193.2,398.3,188.5,404,188.5L404,188.5z
			 M284.8,151.2h-1.3c-26.8,35.6-1.6,46.3,17.8,29.2c6.6-5.8,11.6-8.3,16-3.9c4.4,4.5,1.3,12.3-3.8,16.3
			c-39.5,31.2-70.7,2.8-49.9-34.8c1-2,2-3.9,3.1-5.8c-1.4,0.4-8.4,1.9-9.9,2.1c-6.9,33-63.7,74.5-66.2,36.8c0-6.2,0.5-12.4,1.4-18.4
			c0.4-2.3,0.8-4.6,1.3-6.9c-9.1,11.9-25,32.9-37.8,38.8c-10.8,5-25.4-3.9-14-21.4c11.5-17.7,37.4-37.6,26.8-65.2
			c-6.3-16.5,25.4-22.8,19.8,4.1c-6.3,29.6-32.7,41.4-30.9,64.3c0.8,10.9,41.9-38.9,44.1-50.7c2.6-14.3,23.8-22.2,21.1-4.9
			c-1.5,9.9-26.2,46.2-16.8,57.3c3.7,4.4,35.2-22.4,36.7-37.4c-0.3-0.2-0.6-0.3-0.9-0.5c-8.9-5.6-2.6-18.4,6.9-18.4
			c4.8,0,9.8,5.4,10.2,11.2c0.4,0.1,2.8,0.1,3.3,0.2c6.5-0.2,12.2-2.3,16.8-8.4c8.7-11.5,23.4-24.4,37-29.8
			C341.5,95,349.4,148.3,284.8,151.2L284.8,151.2z M322.4,123.9c0,0,5.6-8.3-1.4-6c-0.8,0.2-1.6,0.6-2.5,1.1l0,0
			c-9,5.1-16.7,12.2-24,19.5c-2.1,2.1-1.6,1.6,1.1,1C304.6,137.5,317.1,131.9,322.4,123.9L322.4,123.9z M388.9,121.9
			c0.1-0.2,0.2-0.5,0.3-0.7c0.3-0.7,0.4-1.4,0.5-1.9c0-0.5,0-0.9-0.1-1.2V118c-0.2-0.2-0.4-0.4-0.8-0.4c-0.2,0-0.3,0-0.5,0
			c-0.5,0-1.2,0.1-1.9,0.4c-0.8,0.2-1.6,0.6-2.5,1.1l0,0c-9,5.1-16.7,12.2-24,19.5c-1.1,1.1-1.5,1.5-1.2,1.5s1.1-0.2,2.2-0.5
			c9.1-1.9,21.5-7.6,26.9-15.6C387.8,123.9,388.4,123,388.9,121.9L388.9,121.9z"/>
	</g>
</g>
</svg>
